<svg xmlns="http://www.w3.org/2000/svg" width="100" height="77.764" viewBox="0 0 100 77.764">
  <path id="Icon_fa-solid-frog" data-name="Icon fa-solid-frog" d="M63.878,2.25A13.888,13.888,0,0,1,77.712,14.835L92.571,19.4a10.514,10.514,0,0,1,2.1,19.2l-25.1,14.251L85.628,68.905h8.8a5.555,5.555,0,0,1,0,11.109H83.319A5.545,5.545,0,0,1,79.4,78.383L60.215,59.219A18.051,18.051,0,0,0,30.307,40.854L17.532,53.005a2.775,2.775,0,1,0,3.819,4.027l12.81-12.185.017-.017.017-.017a12.152,12.152,0,0,1,1.961-1.6A12.5,12.5,0,0,1,53.428,60.591a13.292,13.292,0,0,1-1.562,1.892l-6.422,6.422H61.1a5.555,5.555,0,0,1,0,11.109H11.109A11.119,11.119,0,0,1,0,68.905,55.539,55.539,0,0,1,50.217,13.62,13.9,13.9,0,0,1,63.878,2.25Zm0,18.052a4.166,4.166,0,1,0-4.166-4.166A4.166,4.166,0,0,0,63.878,20.3Z" transform="translate(0 -2.25)" fill="#578121"/>
</svg>
